<?xml version="1.0" encoding="UTF-8"?>
<svg version="1.1" xmlns="http://www.w3.org/2000/svg" width="199" height="71">
<path d="M0 0 C65.67 0 131.34 0 199 0 C199 23.43 199 46.86 199 71 C133.33 71 67.66 71 0 71 C0 47.57 0 24.14 0 0 Z " fill="#FDFDFD" transform="translate(0,0)"/>
<path d="M0 0 C6.0098444 2.76303992 11.43344129 6.72016162 15.2734375 12.16015625 C18.04260304 19.78893583 18.89849974 29.04966639 16.41015625 36.875 C15.27138369 39.16496809 14.09942335 41.3341704 12.2734375 43.16015625 C9.17092549 43.2488976 6.0907563 43.2753408 2.98828125 43.2578125 C2.05746231 43.25639755 1.12664337 43.2549826 0.1676178 43.25352478 C-2.81797441 43.24790797 -5.80349279 43.23535265 -8.7890625 43.22265625 C-10.80794163 43.21764341 -12.82682193 43.21308013 -14.84570312 43.20898438 C-19.80601822 43.19793308 -24.76627782 43.1806572 -29.7265625 43.16015625 C-29.7265625 42.50015625 -29.7265625 41.84015625 -29.7265625 41.16015625 C-30.3865625 41.16015625 -31.0465625 41.16015625 -31.7265625 41.16015625 C-35.35779463 32.21176278 -36.45955758 22.32746718 -32.7265625 13.16015625 C-29.03847169 7.54827754 -24.69536003 4.0882456 -18.7265625 1.16015625 C-18.11425781 0.80566406 -17.50195312 0.45117188 -16.87109375 0.0859375 C-11.67163411 -2.15863797 -5.31602199 -1.63745663 0 0 Z " fill="#0964FE" transform="translate(49.7265625,16.83984375)"/>
<path d="M0 0 C-1.15058556 5.39795989 -2.42421759 10.70987333 -4 16 C-1.69 16 0.62 16 3 16 C2.61163378 18.3271077 2.32141849 19.67737598 0.63305664 21.37207031 C-0.21977905 21.96906738 -0.21977905 21.96906738 -1.08984375 22.578125 C-1.70923828 23.01640625 -2.32863281 23.4546875 -2.96679688 23.90625 C-3.61712891 24.3496875 -4.26746094 24.793125 -4.9375 25.25 C-5.58396484 25.70890625 -6.23042969 26.1678125 -6.89648438 26.640625 C-11.71058873 30 -11.71058873 30 -14 30 C-14 30.66 -14 31.32 -14 32 C-14.99 32 -15.98 32 -17 32 C-16.58846263 27.02906176 -16.20399168 22.55491614 -14 18 C-12.35 18 -10.7 18 -9 18 C-9 17.34 -9 16.68 -9 16 C-12.96 16 -16.92 16 -21 16 C-20.67 14.68 -20.34 13.36 -20 12 C-19.34 12 -18.68 12 -18 12 C-18 11.34 -18 10.68 -18 10 C-15.734375 8.37890625 -15.734375 8.37890625 -12.75 6.5625 C-8.67806239 4.07955205 -8.67806239 4.07955205 -4.828125 1.27734375 C-3 0 -3 0 0 0 Z " fill="#EAF2FF" transform="translate(50,27)"/>
<path d="M0 0 C0.99 0.495 0.99 0.495 2 1 C2 2.98 2 4.96 2 7 C2.66 7 3.32 7 4 7 C3.98839844 7.94101562 3.97679687 8.88203125 3.96484375 9.8515625 C3.95582031 11.09679688 3.94679688 12.34203125 3.9375 13.625 C3.92589844 14.85476562 3.91429687 16.08453125 3.90234375 17.3515625 C3.99136076 20.67723791 4.36313913 23.74047588 5 27 C4.67 27 4.34 27 4 27 C3.67 28.65 3.34 30.3 3 32 C2.01 32 1.02 32 0 32 C0 21.44 0 10.88 0 0 Z " fill="#F2F1EF" transform="translate(12,28)"/>
<path d="M0 0 C0.33 0 0.66 0 1 0 C1 7.26 1 14.52 1 22 C0.67 22 0.34 22 0 22 C0 20.35 0 18.7 0 17 C-0.99 17 -1.98 17 -3 17 C-3.66 16.01 -4.32 15.02 -5 14 C-5.99 15.485 -5.99 15.485 -7 17 C-7.66 17 -8.32 17 -9 17 C-8.814375 15.9275 -8.62875 14.855 -8.4375 13.75 C-8.0695432 10.59608454 -7.95534657 8.90181508 -9 6 C-6 7 -6 7 -5 9 C-4.34 8.01 -3.68 7.02 -3 6 C-2.01 6 -1.02 6 0 6 C0 4.02 0 2.04 0 0 Z " fill="#131313" transform="translate(165,43)"/>
<path d="M0 0 C19.8 0 39.6 0 60 0 C60 0.33 60 0.66 60 1 C48.78 1 37.56 1 26 1 C26 1.66 26 2.32 26 3 C26.99 3 27.98 3 29 3 C28.67 3.66 28.34 4.32 28 5 C27.0925 4.505 26.185 4.01 25.25 3.5 C18.94619269 0.79103189 11.75787847 1.26456574 5.25 3 C4.5075 3.33 3.765 3.66 3 4 C2.01 2.68 1.02 1.36 0 0 Z " fill="#E9EBF0" transform="translate(26,15)"/>
<path d="M0 0 C5.75 -0.125 5.75 -0.125 8 1 C7.79375 1.9075 7.5875 2.815 7.375 3.75 C6.9872755 7.11027897 7.19588033 8.24075815 9 11 C8.01 11 7.02 11 6 11 C5.67 9.68 5.34 8.36 5 7 C4.01 7 3.02 7 2 7 C2 8.32 2 9.64 2 11 C1.34 11 0.68 11 0 11 C0 7.37 0 3.74 0 0 Z " fill="#343434" transform="translate(141,49)"/>
<path d="M0 0 C0.66 0 1.32 0 2 0 C2 1.32 2 2.64 2 4 C3.65 4 5.3 4 7 4 C7 2.68 7 1.36 7 0 C7.66 0 8.32 0 9 0 C9 3.63 9 7.26 9 11 C8.34 11 7.68 11 7 11 C7 9.35 7 7.7 7 6 C5.35 6 3.7 6 2 6 C2 7.65 2 9.3 2 11 C1.34 11 0.68 11 0 11 C0 7.37 0 3.74 0 0 Z " fill="#010101" transform="translate(101,49)"/>
<path d="M0 0 C1.8125 0.0625 1.8125 0.0625 4 1 C5.81278756 4.4960903 7 7.03981755 7 11 C6.34 11 5.68 11 5 11 C5 10.34 5 9.68 5 9 C3.02 9 1.04 9 -1 9 C-1 9.66 -1 10.32 -1 11 C-1.66 11 -2.32 11 -3 11 C-2.625 8.0625 -2.625 8.0625 -2 5 C-1.34 4.67 -0.68 4.34 0 4 C0 4.99 0 5.98 0 7 C0.99 7 1.98 7 3 7 C2.65213292 5.02463255 2.65213292 5.02463255 2 3 C1.34 2.67 0.68 2.34 0 2 C0 1.34 0 0.68 0 0 Z " fill="#151515" transform="translate(115,49)"/>
<path d="M0 0 C1.65 0 3.3 0 5 0 C5.33 0.99 5.66 1.98 6 3 C4.68 2.67 3.36 2.34 2 2 C2.66 2.5775 3.32 3.155 4 3.75 C6 6 6 6 6 10 C4.02 10.33 2.04 10.66 0 11 C0 10.01 0 9.02 0 8 C1.98 8.495 1.98 8.495 4 9 C4 8.34 4 7.68 4 7 C1.525 6.01 1.525 6.01 -1 5 C-0.67 3.35 -0.34 1.7 0 0 Z " fill="#353535" transform="translate(93,49)"/>
<path d="M0 0 C0.90025949 3.05244234 1.07911637 5.70045574 1 8.875 C0.95468467 12.704145 1.20773037 16.23671927 2 20 C1.67 20 1.34 20 1 20 C0.67 21.65 0.34 23.3 0 25 C-0.66 25 -1.32 25 -2 25 C-2.14462504 16.98134509 -1.98687492 8.96810124 -1 1 C-0.67 0.67 -0.34 0.34 0 0 Z " fill="#C2D4F1" transform="translate(15,35)"/>
<path d="M0 0 C1.65 0.33 3.3 0.66 5 1 C5 1.66 5 2.32 5 3 C3.68 2.67 2.36 2.34 1 2 C1.680625 2.556875 2.36125 3.11375 3.0625 3.6875 C4.0215625 4.8321875 4.0215625 4.8321875 5 6 C4.75 8.75 4.75 8.75 4 11 C2.35 11 0.7 11 -1 11 C-1 10.01 -1 9.02 -1 8 C0.98 8.495 0.98 8.495 3 9 C1.35 7.35 -0.3 5.7 -2 4 C-1.34 2.68 -0.68 1.36 0 0 Z " fill="#101010" transform="translate(125,49)"/>
<path d="M0 0 C2.97 0 5.94 0 9 0 C9 0.66 9 1.32 9 2 C8.01 2 7.02 2 6 2 C6 4.97 6 7.94 6 11 C5.01 11 4.02 11 3 11 C3 8.03 3 5.06 3 2 C2.01 2 1.02 2 0 2 C0 1.34 0 0.68 0 0 Z " fill="#232323" transform="translate(131,49)"/>
<path d="M0 0 C0.99 0 1.98 0 3 0 C3 3.63 3 7.26 3 11 C2.01 11 1.02 11 0 11 C0 7.37 0 3.74 0 0 Z " fill="#464646" transform="translate(151,49)"/>
<path d="M0 0 C0.99 0.33 1.98 0.66 3 1 C3 2.32 3 3.64 3 5 C1.02 5.33 -0.96 5.66 -3 6 C-3 5.01 -3 4.02 -3 3 C-1.02 3.495 -1.02 3.495 1 4 C0.67 2.68 0.34 1.36 0 0 Z " fill="#0E0E0E" transform="translate(96,54)"/>
<path d="M0 0 C1.65 0.33 3.3 0.66 5 1 C5 1.66 5 2.32 5 3 C3.68 2.67 2.36 2.34 1 2 C1 2.66 1 3.32 1 4 C0.01 4 -0.98 4 -2 4 C-1.34 2.68 -0.68 1.36 0 0 Z " fill="#2A2A2A" transform="translate(125,49)"/>
<path d="M0 0 C0.33 0 0.66 0 1 0 C1 2.97 1 5.94 1 9 C0.01 8.01 -0.98 7.02 -2 6 C-1.7181953 3.67511119 -1.04553582 2.09107165 0 0 Z " fill="#E3E3E3" transform="translate(164,50)"/>
</svg>
